<svg xmlns="http://www.w3.org/2000/svg" version="1.1" xmlns:xlink="http://www.w3.org/1999/xlink" width="512" height="512" x="0" y="0" viewBox="0 0 64 64" style="enable-background:new 0 0 512 512" xml:space="preserve" class=""><g><circle cx="46" cy="18" r="16" fill="#e6e9ed" opacity="1" data-original="#e6e9ed"></circle><circle cx="46" cy="46" r="16" fill="#e6e9ed" opacity="1" data-original="#e6e9ed"></circle><circle cx="18" cy="46" r="16" fill="#e6e9ed" opacity="1" data-original="#e6e9ed"></circle><circle cx="18" cy="18" r="16" fill="#e6e9ed" opacity="1" data-original="#e6e9ed"></circle><path fill="#aab2bd" d="M44 52h6v4h-6z" opacity="1" data-original="#aab2bd"></path><path fill="#ccd1d9" d="M56 48v3c0 .55-.45 1-1 1H39c-.55 0-1-.45-1-1v-3z" opacity="1" data-original="#ccd1d9"></path><path fill="#69d6f4" d="M56 39v9H38v-8c.76-.57 1.43-1.24 2-2h15c.55 0 1 .45 1 1z" opacity="1" data-original="#69d6f4"></path><path fill="#dfb28b" d="M22 38v4H6v-4z" opacity="1" data-original="#dfb28b"></path><path fill="#ecc19c" d="M16 50v8H8V42h12v8z" opacity="1" data-original="#ecc19c"></path><path fill="#ffeaa7" d="M20 50h8v8H16v-8z" opacity="1" data-original="#ffeaa7"></path><path fill="#b4dd7f" d="M58 16.82V20c0 1.1-.9 2-2 2h-2c0-1.1-.9-2-2-2s-2 .9-2 2h-8c0-1.1-.9-2-2-2s-2 .9-2 2h-2c-1.1 0-2-.9-2-2v-3.18c0-.48.34-.89.8-.98L39 15l.68-3.39A2 2 0 0 1 41.64 10h8.72a2 2 0 0 1 1.96 1.61L53 15l4.2.84c.46.09.8.5.8.98z" opacity="1" data-original="#b4dd7f"></path><circle cx="52" cy="22" r="2" fill="#969faa" opacity="1" data-original="#969faa"></circle><circle cx="40" cy="22" r="2" fill="#969faa" opacity="1" data-original="#969faa"></circle><path fill="#dfb28b" d="M24 16v9c0 .55-.45 1-1 1h-3v-6h-4v6h-3c-.55 0-1-.45-1-1v-9z" opacity="1" data-original="#dfb28b"></path><path fill="#ef7385" d="M25.52 13.59c.31.26.48.64.48 1.04 0 .76-.61 1.37-1.37 1.37H11.37c-.76 0-1.37-.61-1.37-1.37 0-.4.17-.78.48-1.04l5.76-4.94C16.73 8.23 17.35 8 18 8s1.27.23 1.76.65z" opacity="1" data-original="#ef7385"></path><path fill="#aab2bd" d="M16 20h4v6h-4z" opacity="1" data-original="#aab2bd"></path><path fill="#fcd770" d="M41.89 30.53A9.991 9.991 0 0 1 38 40a9.9 9.9 0 0 1-4.53 1.89 9.988 9.988 0 0 1-10.02-4.71 9.892 9.892 0 0 1-1.34-3.71c-.07-.48-.11-.97-.11-1.47 0-5.02 3.7-9.18 8.53-9.89.48-.07.97-.11 1.47-.11 5.02 0 9.18 3.7 9.89 8.53z" opacity="1" data-original="#fcd770" class=""></path><path d="M33 27.184V25h-2v2h-2v3c0 1.654 1.346 3 3 3a1 1 0 0 1 1 1v1h-1a1 1 0 0 1-1-1v-1h-2v1c0 1.302.839 2.402 2 2.816V39h2v-2h2v-3c0-1.654-1.346-3-3-3a1 1 0 0 1-1-1v-1h1a1 1 0 0 1 1 1v1h2v-1a2.996 2.996 0 0 0-2-2.816z" fill="#000000" opacity="1" data-original="#000000"></path><path d="M55.626 32.003A17.013 17.013 0 0 0 63 18c0-9.374-7.626-17-17-17-5.802 0-10.929 2.925-13.998 7.375A17.013 17.013 0 0 0 18 1C8.626 1 1 8.626 1 18c0 5.802 2.925 10.928 7.374 13.997A17.013 17.013 0 0 0 1 46c0 9.374 7.626 17 17 17 5.802 0 10.928-2.925 13.997-7.374A17.013 17.013 0 0 0 46 63c9.374 0 17-7.626 17-17 0-5.802-2.925-10.928-7.374-13.997zM46 3c8.271 0 15 6.729 15 15a15.015 15.015 0 0 1-7.298 12.865A16.862 16.862 0 0 0 46 29c-1.127 0-2.247.112-3.341.33a10.97 10.97 0 0 0-2.22-4.374A2.989 2.989 0 0 0 42.816 23h6.369c.414 1.161 1.514 2 2.816 2s2.402-.839 2.816-2H56c1.654 0 3-1.346 3-3v-3.181c0-.949-.676-1.773-1.607-1.961l-3.543-.708-.548-2.738A3.008 3.008 0 0 0 50.36 9h-8.72a3.006 3.006 0 0 0-2.941 2.411l-.549 2.739-3.544.708A2.007 2.007 0 0 0 33 16.819V20c0 .378.078.736.206 1.07-.397-.044-.798-.07-1.206-.07-.233 0-.46.021-.689.035A15.085 15.085 0 0 1 31 18c0-8.271 6.729-15 15-15zm-1 52v-2h4v2zm-6-4v-2h16v2zm-7-10c-4.963 0-9-4.037-9-9s4.037-9 9-9 9 4.037 9 9-4.037 9-9 9zM19 25h-2v-4h2zm-4-6v6h-2v-8h10v8h-2v-6zm9.63-4H11.37a.37.37 0 0 1-.241-.651l5.764-4.939a1.7 1.7 0 0 1 2.215-.001l5.762 4.939a.37.37 0 0 1-.24.652zm30.186 6c-.414-1.161-1.514-2-2.816-2s-2.402.839-2.816 2h-6.369c-.414-1.161-1.514-2-2.816-2s-2.402.839-2.816 2H36a1 1 0 0 1-1-1v-3.181l4.85-.97.81-4.047a1 1 0 0 1 .98-.802h8.721a1 1 0 0 1 .98.804l.81 4.046 4.85.97V20a1 1 0 0 1-1 1zM53 22a1 1 0 1 1-2 0 1 1 0 0 1 2 0zm-14 0a1 1 0 1 1 2 0 1 1 0 0 1-2 0zm16 25H39v-6.521c.538-.445 1.033-.94 1.479-1.479H55zM3 18C3 9.729 9.729 3 18 3a15.015 15.015 0 0 1 12.864 7.298 16.877 16.877 0 0 0-1.534 11.043 10.973 10.973 0 0 0-4.33 2.18v-6.559c1.13-.179 2-1.153 2-2.333a2.37 2.37 0 0 0-.828-1.799L20.41 7.892c-1.34-1.15-3.481-1.15-4.819 0l-5.764 4.939A2.37 2.37 0 0 0 9 14.63c0 1.18.87 2.153 2 2.333V25c0 1.103.897 2 2 2h9.214A10.928 10.928 0 0 0 21 32c0 .233.021.46.035.689-.993.204-2.01.311-3.035.311-8.271 0-15-6.729-15-15zm7.298 15.135A16.862 16.862 0 0 0 18 35c1.127 0 2.247-.112 3.341-.33.205.816.497 1.597.873 2.33H6.01a15.025 15.025 0 0 1 4.288-3.865zM27 57H17v-6h10zm-12-8v8H9V43h10v6zm-8-8v-2h14v2zm-4 5c0-2.669.714-5.234 2-7.471V43h2v13.164C4.526 53.488 3 49.923 3 46zm7.548 13h14.903c-2.198 1.265-4.738 2-7.452 2s-5.252-.735-7.451-2zM29 56.164V49h-8v-6h2v-4.695C24.992 41.139 28.28 43 32 43c.233 0 .46-.021.689-.035.204.993.311 2.01.311 3.035 0 3.923-1.526 7.488-4 10.164zM46 61a15.015 15.015 0 0 1-12.865-7.298A16.862 16.862 0 0 0 35 46c0-1.127-.112-2.247-.33-3.341a10.94 10.94 0 0 0 2.33-.873V51c0 1.103.897 2 2 2h4v2h-2v2h12v-2h-2v-2h4c1.103 0 2-.897 2-2V39c0-1.103-.897-2-2-2H41.786A10.928 10.928 0 0 0 43 32c0-.233-.021-.46-.035-.689.993-.204 2.01-.311 3.035-.311 8.271 0 15 6.729 15 15s-6.729 15-15 15z" fill="#000000" opacity="1" data-original="#000000"></path><path d="M19 53h2v2h-2zM11 53h2v2h-2zM11 49h2v2h-2zM11 45h2v2h-2zM15 45h2v2h-2zM23 53h2v2h-2z" fill="#000000" opacity="1" data-original="#000000"></path></g></svg>