<svg xmlns="http://www.w3.org/2000/svg" version="1.1" xmlns:xlink="http://www.w3.org/1999/xlink" width="512" height="512" x="0" y="0" viewBox="0 0 512 512" style="enable-background:new 0 0 512 512" xml:space="preserve" class=""><g><path fill="#0e80ac" d="M174.544 25.989C174.544 11.636 162.908 0 148.554 0H37.621c-14.354 0-25.99 11.636-25.99 25.989V486.01c0 14.354 11.636 25.989 25.989 25.989h110.934c14.354 0 25.989-11.636 25.989-25.989h24.293V25.989z" opacity="1" data-original="#0e80ac" class=""></path><path fill="#057195" d="M148.554 0h-35.473c14.354 0 25.989 11.636 25.989 25.989V486.01c0 14.354-11.636 25.989-25.989 25.989h35.473c14.354 0 25.989-11.636 25.989-25.989V25.989C174.544 11.636 162.908 0 148.554 0z" opacity="1" data-original="#057195" class=""></path><path fill="#fd7e42" d="M337.456 25.989C337.456 11.636 325.82 0 311.467 0H200.533c-14.354 0-25.989 11.636-25.989 25.989V486.01c0 14.354 11.636 25.989 25.989 25.989h110.934c14.354 0 25.989-11.636 25.989-25.989h24.293V25.989z" opacity="1" data-original="#fd7e42" class=""></path><path fill="#fa6931" d="M311.467 0h-35.473c14.354 0 25.989 11.636 25.989 25.989V486.01c0 14.354-11.636 25.989-25.989 25.989h35.473c14.354 0 25.989-11.636 25.989-25.989V25.989C337.456 11.636 325.82 0 311.467 0z" opacity="1" data-original="#fa6931"></path><path fill="#f1faff" d="M210.017 236.153V46.278c0-6.389 5.179-11.568 11.568-11.568h68.829c6.389 0 11.569 5.179 11.569 11.568v189.875c0 6.389-5.179 11.568-11.569 11.568h-68.829c-6.389 0-11.568-5.179-11.568-11.568z" opacity="1" data-original="#f1faff" class=""></path><path fill="#fdcb82" d="M474.379 512H363.446c-14.354 0-25.989-11.636-25.989-25.989V25.989C337.456 11.636 349.092 0 363.446 0H474.38c14.354 0 25.989 11.636 25.989 25.989V486.01c0 14.354-11.636 25.99-25.99 25.99z" opacity="1" data-original="#fdcb82"></path><path fill="#fbbe66" d="M474.379 0h-35.473c14.354 0 25.989 11.636 25.989 25.989V486.01c0 14.354-11.636 25.989-25.989 25.989h35.473c14.354 0 25.989-11.636 25.989-25.989V25.989C500.369 11.636 488.733 0 474.379 0z" opacity="1" data-original="#fbbe66"></path><path fill="#f1faff" d="M372.929 236.153V46.278c0-6.389 5.179-11.568 11.568-11.568h68.829c6.389 0 11.568 5.179 11.568 11.568v189.875c0 6.389-5.179 11.568-11.568 11.568h-68.829c-6.388 0-11.568-5.179-11.568-11.568z" opacity="1" data-original="#f1faff" class=""></path><circle cx="93.088" cy="417.038" r="45.963" fill="#f1faff" opacity="1" data-original="#f1faff" class=""></circle><path fill="#3c5959" d="M93.088 437.603c-11.339 0-20.565-9.225-20.565-20.565 0-11.339 9.225-20.565 20.565-20.565s20.565 9.225 20.565 20.565c-.001 11.34-9.226 20.565-20.565 20.565z" opacity="1" data-original="#3c5959"></path><path fill="#f1faff" d="M47.104 236.153V46.278c0-6.389 5.179-11.568 11.568-11.568h68.829c6.389 0 11.568 5.179 11.568 11.568v189.875c0 6.389-5.179 11.568-11.568 11.568H58.673c-6.389 0-11.569-5.179-11.569-11.568z" opacity="1" data-original="#f1faff" class=""></path><g fill="#0e80ac"><path d="M109.955 84.887H76.219a7.726 7.726 0 1 1 0-15.452h33.736a7.726 7.726 0 1 1 0 15.452zM109.955 126.037H76.219a7.726 7.726 0 1 1 0-15.452h33.736a7.726 7.726 0 1 1 0 15.452zM272.868 84.887h-33.735a7.726 7.726 0 1 1 0-15.452h33.735a7.726 7.726 0 1 1 0 15.452zM272.868 126.037h-33.735a7.726 7.726 0 1 1 0-15.452h33.735a7.726 7.726 0 1 1 0 15.452zM435.78 84.887h-33.735a7.726 7.726 0 1 1 0-15.452h33.735a7.726 7.726 0 1 1 0 15.452zM435.78 126.037h-33.735a7.726 7.726 0 1 1 0-15.452h33.735a7.726 7.726 0 1 1 0 15.452z" fill="#0e80ac" opacity="1" data-original="#0e80ac" class=""></path></g><circle cx="93.088" cy="417.038" r="52.326" fill="#f1faff" opacity="1" data-original="#f1faff" class=""></circle><path fill="#3c5959" d="M93.088 440.822c-13.114 0-23.784-10.669-23.784-23.784 0-13.114 10.669-23.784 23.784-23.784s23.784 10.669 23.784 23.784c-.001 13.115-10.67 23.784-23.784 23.784z" opacity="1" data-original="#3c5959"></path><circle cx="256" cy="417.038" r="52.326" fill="#f1faff" opacity="1" data-original="#f1faff" class=""></circle><path fill="#3c5959" d="M256 440.822c-13.114 0-23.784-10.669-23.784-23.784 0-13.114 10.669-23.784 23.784-23.784 13.114 0 23.784 10.669 23.784 23.784s-10.67 23.784-23.784 23.784z" opacity="1" data-original="#3c5959"></path><circle cx="418.912" cy="417.038" r="52.326" fill="#f1faff" opacity="1" data-original="#f1faff" class=""></circle><path fill="#3c5959" d="M418.913 440.822c-13.114 0-23.784-10.669-23.784-23.784 0-13.114 10.669-23.784 23.784-23.784 13.114 0 23.784 10.669 23.784 23.784-.001 13.115-10.67 23.784-23.784 23.784z" opacity="1" data-original="#3c5959"></path></g></svg>