<svg xmlns="http://www.w3.org/2000/svg" version="1.1" xmlns:xlink="http://www.w3.org/1999/xlink" width="512" height="512" x="0" y="0" viewBox="0 0 512 512" style="enable-background:new 0 0 512 512" xml:space="preserve" class=""><g><circle cx="256" cy="267" r="245" fill="#ffb509" opacity="1" data-original="#ffb509"></circle><circle cx="244.647" cy="283.673" r="200" fill="#ffc143" opacity="1" data-original="#ffc143"></circle><path fill="#0055ca" d="M151.339 389.048H65.156c-5.523 0-10-4.477-10-10V10c0-5.523 4.477-10 10-10h86.183c5.523 0 10 4.477 10 10v369.048c0 5.522-4.477 10-10 10z" opacity="1" data-original="#0055ca"></path><path fill="#0066ed" d="M387.871 389.048h-235.85c-5.523 0-10-4.477-10-10V10c0-5.523 4.477-10 10-10H387.87c5.523 0 10 4.477 10 10v369.048c.001 5.522-4.477 10-9.999 10z" opacity="1" data-original="#0066ed"></path><path fill="#d9e7ec" d="M467.374 420.187H134.659a5 5 0 0 1-5-5V36.139a5 5 0 0 1 5-5h332.715a5 5 0 0 1 5 5v379.048a5 5 0 0 1-5 5z" opacity="1" data-original="#d9e7ec"></path><path fill="#d9e7ec" d="M131.393 445.549h-24.881a5 5 0 0 1-5-5V61.502a5 5 0 0 1 5-5h24.881a5 5 0 0 1 5 5V440.55a4.999 4.999 0 0 1-5 4.999z" opacity="1" data-original="#d9e7ec"></path><path fill="#ffffff" d="M439.227 445.549H131.835a5 5 0 0 1-5-5V61.502a5 5 0 0 1 5-5h307.392a5 5 0 0 1 5 5V440.55a5 5 0 0 1-5 4.999z" opacity="1" data-original="#ffffff" class=""></path><path fill="#93d0fd" d="M251.393 235.549h-160a5 5 0 0 1-5-5v-180a5 5 0 0 1 5-5h160a5 5 0 0 1 5 5v180a5 5 0 0 1-5 5z" opacity="1" data-original="#93d0fd" class=""></path><path fill="#49b6fc" d="M142.276 215.549h-30.883a5 5 0 0 1-5-5v-140a5 5 0 0 1 5-5h30.883a5 5 0 0 1 5 5v140a5 5 0 0 1-5 5z" opacity="1" data-original="#49b6fc"></path><path fill="#65befc" d="M231.393 215.549h-90a5 5 0 0 1-5-5v-140a5 5 0 0 1 5-5h90a5 5 0 0 1 5 5v140a5 5 0 0 1-5 5z" opacity="1" data-original="#65befc"></path><path fill="#ffffff" d="M171.393 139.263c12.521 0 22.672-10.15 22.672-22.671v-7.557c0-12.521-10.15-22.671-22.671-22.671-12.521 0-22.671 10.15-22.671 22.671v7.557c-.001 12.521 10.149 22.671 22.67 22.671zM138.138 194.736h66.51a5 5 0 0 0 5-5v-10.343c0-16.569-13.431-30-30-30h-16.51c-16.569 0-30 13.431-30 30v10.343a5 5 0 0 0 5 5z" opacity="1" data-original="#ffffff" class=""></path><path fill="#9facba" d="M398.893 113.049h-105a7.5 7.5 0 0 1 0-15h105a7.5 7.5 0 0 1 0 15zM358.893 143.049h-65a7.5 7.5 0 0 1 0-15h65a7.5 7.5 0 0 1 0 15z" opacity="1" data-original="#9facba"></path><g fill="#c5d3dd"><path d="M398.893 188.049h-105a7.5 7.5 0 0 1 0-15h105a7.5 7.5 0 0 1 0 15zM398.893 218.049h-105a7.5 7.5 0 0 1 0-15h105a7.5 7.5 0 0 1 0 15zM320.893 293.049h-177a7.5 7.5 0 0 1 0-15h177a7.5 7.5 0 0 1 0 15z" fill="#c5d3dd" opacity="1" data-original="#c5d3dd"></path></g><path fill="#9facba" d="M240.893 353.049h-97a7.5 7.5 0 0 1 0-15h97a7.5 7.5 0 0 1 0 15zM178.011 402.5h-34.117a7.5 7.5 0 0 1 0-15h34.117a7.5 7.5 0 0 1 0 15z" opacity="1" data-original="#9facba"></path><path fill="#c5d3dd" d="M360.893 323.049h-217a7.5 7.5 0 0 1 0-15h217a7.5 7.5 0 0 1 0 15z" opacity="1" data-original="#c5d3dd"></path><path fill="#00c53b" d="M464.51 414.114c0 13.097-3.673 25.337-10.044 35.745a11.28 11.28 0 0 1-3.728 3.728c-10.408 6.371-22.648 10.044-35.745 10.044-37.741 0-68.565-30.823-68.564-68.564 0-13.092 3.67-25.327 10.036-35.733a11.34 11.34 0 0 1 3.749-3.749c10.406-6.367 22.641-10.036 35.733-10.036 37.74 0 68.563 30.824 68.563 68.565z" opacity="1" data-original="#00c53b"></path><path fill="#00b327" d="M455.108 448.788c-11.91 20.277-33.946 33.889-59.162 33.889-37.867 0-68.564-30.697-68.564-68.564 0-25.216 13.612-47.252 33.889-59.162-5.975 10.173-9.402 22.024-9.402 34.675 0 37.867 30.697 68.564 68.564 68.564 12.652 0 24.502-3.427 34.675-9.402z" opacity="1" data-original="#00b327"></path><path fill="#ffffff" d="M389.404 449.771a7.478 7.478 0 0 1-5.304-2.197l-20.882-20.882a7.5 7.5 0 0 1 10.607-10.606l15.578 15.579 36.46-36.46a7.5 7.5 0 0 1 10.607 10.606l-41.764 41.764a7.477 7.477 0 0 1-5.302 2.196z" opacity="1" data-original="#ffffff" class=""></path></g></svg>