<svg xmlns="http://www.w3.org/2000/svg" version="1.1" xmlns:xlink="http://www.w3.org/1999/xlink" width="512" height="512" x="0" y="0" viewBox="0 0 32 32" style="enable-background:new 0 0 512 512" xml:space="preserve" class=""><g><path d="M10.23 8.229c-1.93 0-3.5 1.57-3.5 3.5s1.57 3.5 3.5 3.5c.373 0 .726-.074 1.064-.183a3.491 3.491 0 0 0 2.252-2.252c.109-.338.183-.691.183-1.065 0-1.93-1.57-3.5-3.5-3.5zm-1.5 3.5a1.501 1.501 0 1 1 1.5 1.5c-.828 0-1.5-.673-1.5-1.5z" fill="#000000" opacity="1" data-original="#000000" class=""></path><path d="M2 23.34a1 1 0 1 0 2 0v-3.843s2.37.975 2.53 1.018a1.002 1.002 0 0 0 1.227-.705.987.987 0 0 0-.271-.956.972.972 0 0 0-.435-.27C6.99 18.568 4 17.332 4 17.332V7.5c0-.551.448-1 1-1h15.84a1 1 0 1 0 0-2H5c-1.654 0-3 1.346-3 3zM29.707 2.293a1 1 0 0 0-1.414 0l-26 26a1 1 0 1 0 1.414 1.414L5.914 27.5H27c1.654 0 3-1.346 3-3v-17a2.99 2.99 0 0 0-1.502-2.584l1.209-1.209a1 1 0 0 0 0-1.414zM27 6.5c.552 0 1 .449 1 1v8.403l-1.418-1.148a7.857 7.857 0 0 0-2.883-1.488 7.971 7.971 0 0 0-3.363-.189L26.914 6.5zM14.565 18.849l3.247-2.576a6.019 6.019 0 0 1 5.35-1.08 5.876 5.876 0 0 1 2.158 1.114l2.68 2.17V24.5c0 .551-.448 1-1 1H7.914z" fill="#000000" opacity="1" data-original="#000000" class=""></path></g></svg>