<svg xmlns="http://www.w3.org/2000/svg" version="1.1" xmlns:xlink="http://www.w3.org/1999/xlink" width="512" height="512" x="0" y="0" viewBox="0 0 512 512" style="enable-background:new 0 0 512 512" xml:space="preserve" class=""><g><path d="M7.762 473.433h434.613V504.5H7.762z" style="" fill="#f96491" data-original="#f96491"></path><path d="M411.313 473.433h31.062V504.5h-31.062z" style="" fill="#f93a79" data-original="#f93a79"></path><path d="M313.381 7.5h75.687v30.993h-75.687z" style="" fill="#f96491" data-original="#f96491"></path><path d="M359.068 7.5h30v30.993h-30z" style="" fill="#f93a79" data-original="#f93a79"></path><path d="m376.453 139.424-50.458-25.233V38.493h50.458z" style="" fill="#757575" data-original="#757575"></path><path d="M351.453 38.493v88.429l25 12.502V38.493z" style="" fill="#616161" data-original="#616161"></path><path d="M411.313 473.433H38.694V162.761L225.08 23.153l186.233 139.608z" style="" fill="#dff6fd" data-original="#dff6fd" class=""></path><path d="m225.08 23.153-35.027 26.236 185.492 144.873a15.004 15.004 0 0 1 5.768 11.824v267.347h30V162.761L225.08 23.153z" style="" fill="#d5e3f4" data-original="#d5e3f4"></path><path d="M163.096 283.17h123.966v190.189H163.096z" style="" fill="#757575" data-original="#757575"></path><path d="M163.1 301.35v-.02M163.1 442.362V337.226M287.061 319.043v154.314H224.94" style="stroke-width:15;stroke-linecap:round;stroke-linejoin:round;stroke-miterlimit:10;" fill="none" stroke="#000000" stroke-width="15" stroke-linecap="round" stroke-linejoin="round" stroke-miterlimit="10" data-original="#000000" class=""></path><path d="M411.311 408.807v64.63H38.689V189.022M411.311 246.631v-57.719M411.311 337.065v-57.749M325.991 82.325V38.488h50.46v83.364" style="stroke-width:15;stroke-linecap:round;stroke-linejoin:round;stroke-miterlimit:10;" fill="none" stroke="#000000" stroke-width="15" stroke-linecap="round" stroke-linejoin="round" stroke-miterlimit="10" data-original="#000000" class=""></path><path d="M313.381 7.5h75.687v30.993h-75.687z" style="stroke-width:15;stroke-linecap:round;stroke-linejoin:round;stroke-miterlimit:10;" fill="none" stroke="#000000" stroke-width="15" stroke-linecap="round" stroke-linejoin="round" stroke-miterlimit="10" data-original="#000000" class=""></path><path d="M417.336 193.632 225.079 43.034 32.801 193.632c-6.805 5.33-16.642 4.133-21.971-2.673-5.329-6.806-4.133-16.644 2.672-21.974L215.43 10.83a15.647 15.647 0 0 1 19.299 0l201.906 158.156c6.805 5.33 8.001 15.168 2.672 21.974-3.087 3.942-12.321 9.133-21.971 2.672z" style="" fill="#f96491" data-original="#f96491"></path><path d="m143.8 66.943 71.63-56.109a15.645 15.645 0 0 1 19.3 0l201.901 158.155c6.81 5.331 8 15.162 2.67 21.973-3.08 3.941-12.32 9.131-21.97 2.67L225.08 43.029 32.799 193.633c-6.8 5.331-16.64 4.131-21.97-2.67-5.33-6.811-4.13-16.643 2.67-21.973L118.05 87.106M7.762 473.433h434.613V504.5H7.762z" style="stroke-width:15;stroke-linecap:round;stroke-linejoin:round;stroke-miterlimit:10;" fill="none" stroke="#000000" stroke-width="15" stroke-linecap="round" stroke-linejoin="round" stroke-miterlimit="10" data-original="#000000" class=""></path><path d="m258.171 212.74-95.804-55.321c-7.428-4.289-9.974-13.79-5.685-21.219 4.289-7.43 13.788-9.975 21.216-5.686l95.804 55.321c7.428 4.289 9.974 13.79 5.685 21.219-4.289 7.43-13.787 9.975-21.216 5.686z" style="" fill="#fff08a" data-original="#fff08a"></path><path d="m273.702 185.835-95.804-55.321c-7.275-4.201-16.534-1.846-20.943 5.23l86.746 50.09c7.428 4.289 9.974 13.79 5.685 21.219-.089.154-.18.306-.273.455l9.058 5.23c7.428 4.29 16.927 1.744 21.216-5.686 4.289-7.428 1.744-16.928-5.685-21.217z" style="" fill="#ffc472" data-original="#ffc472"></path><path d="m258.171 212.74-95.804-55.321c-7.428-4.289-9.974-13.79-5.685-21.219h0c4.289-7.43 13.788-9.975 21.216-5.686l95.804 55.321c7.428 4.289 9.974 13.79 5.685 21.219v0c-4.289 7.43-13.787 9.975-21.216 5.686z" style="stroke-width:15;stroke-linecap:round;stroke-linejoin:round;stroke-miterlimit:10;" fill="none" stroke="#000000" stroke-width="15" stroke-linecap="round" stroke-linejoin="round" stroke-miterlimit="10" data-original="#000000" class=""></path><path d="m180.505 347.282-95.804-55.321c-7.428-4.289-9.974-13.79-5.685-21.219 4.289-7.43 13.788-9.975 21.216-5.686l95.804 55.321c7.428 4.289 9.974 13.79 5.685 21.219-4.289 7.43-13.787 9.975-21.216 5.686z" style="" fill="#fff08a" data-original="#fff08a"></path><path d="m196.036 320.377-95.804-55.321c-7.274-4.201-16.534-1.846-20.942 5.23l86.746 50.09c7.429 4.289 9.974 13.79 5.685 21.219-.089.154-.18.306-.273.455l9.058 5.23c7.428 4.289 16.927 1.744 21.216-5.686 4.288-7.428 1.743-16.928-5.686-21.217z" style="" fill="#ffc472" data-original="#ffc472"></path><path d="m180.505 347.282-95.804-55.321c-7.428-4.289-9.974-13.79-5.685-21.219h0c4.289-7.43 13.788-9.975 21.216-5.686l95.804 55.321c7.428 4.289 9.974 13.79 5.685 21.219h0c-4.289 7.43-13.787 9.975-21.216 5.686z" style="stroke-width:15;stroke-linecap:round;stroke-linejoin:round;stroke-miterlimit:10;" fill="none" stroke="#000000" stroke-width="15" stroke-linecap="round" stroke-linejoin="round" stroke-miterlimit="10" data-original="#000000" class=""></path><path d="M116.249 184.051h124.264v108.723H116.249z" style="" transform="rotate(-59.994 178.386 238.41)" fill="#fcad42" data-original="#fcad42" class=""></path><path d="m162.367 157.419-7.5 12.993 58.662 33.874c7.174 4.143 9.633 13.318 5.49 20.494l-47.125 81.635 22.5 12.992 62.125-107.62-94.152-54.368z" style="" fill="#ff905b" data-original="#ff905b" class=""></path><path d="M116.249 184.051h124.264v108.723H116.249z" style="stroke-width:15;stroke-linecap:round;stroke-linejoin:round;stroke-miterlimit:10;" transform="rotate(-59.994 178.386 238.41)" fill="none" stroke="#000000" stroke-width="15" stroke-linecap="round" stroke-linejoin="round" stroke-miterlimit="10" data-original="#000000" class=""></path><path d="M263.754 234.489h31.066v124.254h-31.066z" style="" transform="rotate(-59.994 279.292 296.612)" fill="#fff08a" data-original="#fff08a"></path><path d="M263.754 234.489h31.066v124.254h-31.066z" style="stroke-width:15;stroke-linecap:round;stroke-linejoin:round;stroke-miterlimit:10;" transform="rotate(-59.994 279.292 296.612)" fill="none" stroke="#000000" stroke-width="15" stroke-linecap="round" stroke-linejoin="round" stroke-miterlimit="10" data-original="#000000" class=""></path><path d="m465.935 440.353-135.424-78.199c-7.174-4.143-9.633-13.318-5.49-20.494l16.062-27.825c4.142-7.176 13.316-9.634 20.491-5.491l135.424 78.199c7.174 4.143 9.633 13.318 5.49 20.494l-16.062 27.825c-4.143 7.175-13.317 9.634-20.491 5.491z" style="" fill="#fcad42" data-original="#fcad42" class=""></path><path d="m496.997 386.543-135.424-78.199c-7.174-4.143-16.348-1.684-20.49 5.491l125.915 72.708c7.174 4.143 9.633 13.318 5.49 20.493l-16.062 27.825 9.51 5.491c7.174 4.143 16.348 1.684 20.49-5.491l16.062-27.825c4.142-7.175 1.684-16.35-5.491-20.493z" style="" fill="#ff905b" data-original="#ff905b" class=""></path><path d="m465.935 440.353-135.424-78.199c-7.174-4.143-9.633-13.318-5.49-20.494l16.062-27.825c4.142-7.176 13.316-9.634 20.491-5.491l135.424 78.199c7.174 4.143 9.633 13.318 5.49 20.494l-16.062 27.825c-4.143 7.175-13.317 9.634-20.491 5.491zM146.826 184.341l94.153 54.368M115.801 238.086l94.153 54.368" style="stroke-width:15;stroke-linecap:round;stroke-linejoin:round;stroke-miterlimit:10;" fill="none" stroke="#000000" stroke-width="15" stroke-linecap="round" stroke-linejoin="round" stroke-miterlimit="10" data-original="#000000" class=""></path><path d="M38.694 442.366h186.244v31.067H38.694z" style="" fill="#ffffff" data-original="#ffffff"></path><path d="M38.694 442.366h186.244v31.067H38.694z" style="" fill="#fcad42" data-original="#fcad42" class=""></path><path d="M194.938 442.366h30v31.067h-30z" style="" fill="#ff905b" data-original="#ff905b" class=""></path><path d="M120.01 442.362h104.93v31.075H38.689v-31.075H87.33M69.626 395.765H7.762M69.626 349.164l-46.594-46.601" style="stroke-width:15;stroke-linecap:round;stroke-linejoin:round;stroke-miterlimit:10;" fill="none" stroke="#000000" stroke-width="15" stroke-linecap="round" stroke-linejoin="round" stroke-miterlimit="10" data-original="#000000" class=""></path></g></svg>