<svg xmlns="http://www.w3.org/2000/svg" version="1.1" xmlns:xlink="http://www.w3.org/1999/xlink" width="512" height="512" x="0" y="0" viewBox="0 0 512 512" style="enable-background:new 0 0 512 512" xml:space="preserve" class=""><g><circle cx="256" cy="256" r="248.5" fill="#cbe2ff" opacity="1" data-original="#cbe2ff" class=""></circle><path fill="#bed8fb" d="M256 7.5c-10.701 0-21.245.677-31.59 1.99C346.737 25.009 441.321 129.459 441.321 256s-94.583 230.991-216.91 246.51a250.99 250.99 0 0 0 31.59 1.99c137.243 0 248.5-111.257 248.5-248.5S393.243 7.5 256 7.5z" opacity="1" data-original="#bed8fb" class=""></path><path fill="#365e7d" d="M317.757 101.611c0-12.692-10.289-22.98-22.98-22.98h-79.192c-29.21 0-52.889 23.679-52.889 52.889v58.721h186.578v-57.887c0-12.692-10.289-22.98-22.98-22.98h-.774a7.763 7.763 0 0 1-7.763-7.763z" opacity="1" data-original="#365e7d"></path><path fill="#2b4d66" d="M326.293 109.373h-.774a7.761 7.761 0 0 1-7.761-7.761c0-12.692-10.289-22.98-22.98-22.98h-8.683v111.61h63.179v-57.887c-.001-12.694-10.289-22.982-22.981-22.982z" opacity="1" data-original="#2b4d66"></path><path fill="#4a80aa" d="M436.52 408.243c0-24.074-15.598-45.374-38.549-52.64l-67.844-21.48-74.111-2.605-74.142 2.605-67.844 21.48c-22.951 7.267-38.549 28.566-38.549 52.64v18.534c45.201 47.763 109.154 77.598 180.077 77.722a265.799 265.799 0 0 0 29.921-1.73c59.243-7.002 112.101-34.844 151.042-75.992v-18.534z" opacity="1" data-original="#4a80aa" class=""></path><path fill="#407093" d="M436.52 426.778v-18.534c0-17.022-7.805-32.65-20.487-42.918-36.023 73.41-107.187 126.451-191.564 137.177a250.691 250.691 0 0 0 31.088 1.997 265.799 265.799 0 0 0 29.921-1.73c59.242-7.002 112.101-34.844 151.042-75.992z" opacity="1" data-original="#407093"></path><path fill="#e4f6ff" d="M304.648 333.228 256.015 314.3l-48.679 18.929c-11.664 55.313 31.592 145.35 44.889 171.221 1.11.017 2.217.047 3.331.049 1.408-.002 2.808-.042 4.211-.066 13.308-25.893 56.543-115.904 44.881-171.205z" opacity="1" data-original="#e4f6ff"></path><path fill="#e28086" d="m244.465 399.54-19.67 77.365 24.735 27.537c4.353.091 8.673.077 13.031-.044l24.694-27.282-19.718-77.575h-23.072z" opacity="1" data-original="#e28086"></path><path fill="#dd636e" d="M249.498 504.407c2.014.053 4.032.089 6.058.092 2.345-.004 4.68-.045 7.01-.11l12.528-13.842a246.605 246.605 0 0 1-30.391 8.521z" opacity="1" data-original="#dd636e"></path><path fill="#ffddce" d="M297.521 326.068v-43.746h-83.073v43.746c0 22.94 41.537 47.998 41.537 47.998s41.536-25.058 41.536-47.998z" opacity="1" data-original="#ffddce" class=""></path><path fill="#ffddce" d="M349.273 182.535h-15.879c-8.831 0-15.991-7.159-15.991-15.991v-8.751c0-11.504-11.255-19.638-22.178-16.028a125.036 125.036 0 0 1-78.455.006l-.03-.01c-10.922-3.608-22.175 4.526-22.175 16.028v8.755c0 8.831-7.159 15.991-15.991 15.991h-15.879v26.149c0 6.682 5.417 12.098 12.098 12.098 2.108 0 3.824 1.652 3.956 3.755 2.551 40.447 36.144 72.467 77.234 72.467 41.09 0 74.683-32.02 77.234-72.467.133-2.104 1.848-3.755 3.956-3.755 6.682 0 12.098-5.417 12.098-12.098v-26.149z" opacity="1" data-original="#ffddce" class=""></path><path fill="#ffcbbe" d="M333.394 182.535c-8.831 0-15.991-7.159-15.991-15.991v-8.751c0-11.504-11.255-19.638-22.178-16.028a124.993 124.993 0 0 1-9.132 2.628v86.365c-.425 28.099-15.822 52.556-38.561 65.773 2.777.302 5.594.472 8.451.472 41.09 0 74.683-32.02 77.234-72.467.133-2.104 1.848-3.755 3.956-3.755 6.682 0 12.098-5.417 12.098-12.098v-26.149h-15.877z" opacity="1" data-original="#ffcbbe"></path><g fill="#f4fbff"><path d="m214.448 314.3-32.575 26.469 34.161 42.238a11.315 11.315 0 0 0 15.148.577l25.69-21.459z" fill="#f4fbff" opacity="1" data-original="#f4fbff"></path><path d="m297.536 314.3-40.665 47.824 24.146 20.645a11.315 11.315 0 0 0 15.192-.44l33.917-41.56z" fill="#f4fbff" opacity="1" data-original="#f4fbff"></path></g><path fill="#365e7d" d="m214.448 314.3-47.813 23.49a7.242 7.242 0 0 0-3.243 9.82l9.367 18.162a12.16 12.16 0 0 1-2.216 14.182l-5.828 5.818c-3.241 3.235-4.405 8.014-2.977 12.364 11.309 34.476 65.741 87.197 86.34 106.271 1.385.036 2.773.062 4.164.077-14.937-29.055-67.873-139.446-37.794-190.184zM341.441 379.954a12.16 12.16 0 0 1-2.216-14.182l9.367-18.162a7.242 7.242 0 0 0-3.243-9.82l-47.813-23.49c30.07 50.725-22.828 161.068-37.782 190.16 1.405-.024 2.808-.059 4.208-.106 20.642-19.118 74.985-71.774 86.284-106.219 1.427-4.35.263-9.13-2.977-12.364l-5.828-5.817z" opacity="1" data-original="#365e7d"></path><path fill="#dd636e" d="m256.872 362.124-25.297 21.127 12.889 16.289h23.071l12.89-17.251z" opacity="1" data-original="#dd636e"></path><path d="M512 256C512 114.516 397.503 0 256 0 114.517 0 0 114.496 0 256c0 137.856 110.237 253.735 251.891 255.95 2.406.108 7.632.007 7.733.006.042.001.22-.002.267-.003C399.637 509.883 512 396.004 512 256zM256 15c133.193 0 241 107.788 241 241 0 55.528-18.667 108.18-53.009 150.819-.597-26.873-18.022-50.218-43.757-58.367l-48.521-15.362c-2.746-2.35-2.023-1.338-46.692-23.47v-20.787c19.475-13.828 32.961-35.657 35.441-60.827 9.247-1.568 16.312-9.636 16.312-19.322v-76.331c0-16.807-13.673-30.48-30.48-30.48h-.774a.261.261 0 0 1-.261-.261c0-16.807-13.673-30.48-30.48-30.48h-79.192c-33.299 0-60.389 27.09-60.389 60.389a7.5 7.5 0 0 0 15 0c0-25.028 20.361-45.389 45.389-45.389h79.192c8.536 0 15.48 6.944 15.48 15.48 0 8.415 6.846 15.261 15.261 15.261h.774c8.536 0 15.48 6.944 15.48 15.48v42.682h-8.379c-4.682 0-8.491-3.809-8.491-8.49v-8.751c0-16.634-16.239-28.369-32.031-23.149-23.778 7.859-49.97 7.861-73.779-.004-15.795-5.216-32.028 6.519-32.028 23.15v8.754c0 4.682-3.809 8.491-8.49 8.491h-8.379v-8.853a7.5 7.5 0 0 0-15 0v42.502c0 9.687 7.064 17.754 16.312 19.323 2.479 25.171 15.966 46.999 35.44 60.827v20.795c-44.577 22.088-43.988 21.158-46.685 23.47l-48.497 15.354c-25.735 8.149-43.16 31.494-43.757 58.367C33.667 364.18 15 311.528 15 256 15 122.806 122.788 15 256 15zm-85.986 376.08 5.829-5.818a19.592 19.592 0 0 0 3.582-22.927l-9.247-17.929 30.306-14.889c-3.225 13.489-3.12 28.313-1.567 42.207l.004.032c3.879 34.642 18.02 73.936 32.152 105.794-23.273-23.42-54.375-57.87-62.208-81.751-.545-1.66-.104-3.468 1.149-4.719zm.182-201.045h8.379c12.953 0 23.49-10.538 23.49-23.491v-8.754c0-6.371 6.206-10.925 12.353-8.897 26.814 8.857 56.348 8.856 83.162-.006 6.075-2.007 12.324 2.505 12.324 8.907v8.751c0 12.953 10.538 23.49 23.491 23.49h8.379v18.649a4.603 4.603 0 0 1-4.599 4.598c-6.034 0-11.06 4.736-11.441 10.783-2.314 36.695-32.951 65.439-69.749 65.439-36.797 0-67.435-28.744-69.749-65.439-.381-6.046-5.407-10.783-11.441-10.783a4.602 4.602 0 0 1-4.598-4.598v-18.649zm85.797 305.25a585.801 585.801 0 0 1-18.013-39.806l12.316-48.44h11.407l12.308 48.424a584.835 584.835 0 0 1-18.018 39.822zm-9.859-133.964-19.761 16.506a3.804 3.804 0 0 1-4.862.025l-7.927-9.801c-1.311-13.147-1.181-27.681 2.925-40.126zm-22.208 32.409c1.912 0 3.823-.309 5.67-.895l6.686 8.45-7.553 29.707c-4.326-12.473-8.226-25.478-11.093-38.368a18.763 18.763 0 0 0 6.29 1.106zm39.851-1.69h-15.683l-6.103-7.713 14.825-12.384 13.41 11.466zm22.115-14.971-18.461-15.785 28.131-33.083c4.009 12.358 4.125 26.674 2.865 39.55l-7.664 9.392a3.803 3.803 0 0 1-4.871-.074zm-29.907-72.565a84.366 84.366 0 0 0 34.036-7.152v14.208l-33.269 39.126-34.804-39.234v-14.101a84.351 84.351 0 0 0 34.037 7.153zm27.278 126.466-7.577-29.809 6.812-9.117c1.91.632 3.891.962 5.875.962 2.072 0 4.136-.364 6.116-1.048-2.862 13.032-6.785 26.203-11.226 39.012zM82.98 423.742v-15.498c0-20.9 13.388-39.182 33.313-45.49l39.985-12.659c.4.934-.011.033 9.816 19.117a4.643 4.643 0 0 1-.848 5.435l-5.829 5.818c-5.283 5.273-7.125 12.941-4.805 20.01 9.573 29.181 47.233 69.591 73.08 94.878-54.878-6.382-105.53-31.228-144.712-71.611zm201.311 71.612c13.939-13.635 31.41-31.751 46.005-50.099a7.5 7.5 0 1 0-11.74-9.338c-11.777 14.806-25.545 29.512-37.677 41.701 14.175-31.94 28.369-71.367 32.212-106.116l.004-.038c1.523-13.801 1.613-28.499-1.595-41.946l30.306 14.889-9.247 17.929a19.594 19.594 0 0 0 3.583 22.928l5.828 5.817c1.253 1.251 1.693 3.059 1.149 4.719-1.175 3.582-2.963 7.605-5.314 11.958a7.5 7.5 0 0 0 3.034 10.163 7.5 7.5 0 0 0 10.163-3.034c2.775-5.136 4.918-9.986 6.37-14.413 2.319-7.069.478-14.736-4.805-20.01l-5.828-5.817a4.647 4.647 0 0 1-.849-5.436c9.755-18.945 9.422-18.197 9.818-19.121l39.998 12.663c19.926 6.309 33.313 24.59 33.313 45.491v15.498c-39.094 40.293-89.713 65.219-144.728 71.612z" fill="#000000" opacity="1" data-original="#000000" class=""></path></g></svg>