<svg xmlns="http://www.w3.org/2000/svg" version="1.1" xmlns:xlink="http://www.w3.org/1999/xlink" width="512" height="512" x="0" y="0" viewBox="0 0 387.652 387.652" style="enable-background:new 0 0 512 512" xml:space="preserve" class=""><g><path fill="#005086" d="M128.897 222.055h19.183c65.347.005 118.318 52.981 118.318 118.328v47.269H10.554v-47.269c0-65.351 52.977-118.328 118.328-118.328z" opacity="1" data-original="#005086" class=""></path><path fill="#f7d6bf" d="M222.468 138.348a83.046 83.046 0 0 1-5.454 29.803c-16.404 43.166-64.695 64.86-107.86 48.456s-64.86-64.695-48.456-107.86c16.404-43.166 64.695-64.86 107.86-48.456 32.42 12.32 53.868 43.376 53.91 78.057z" opacity="1" data-original="#f7d6bf" class=""></path><path fill="#318fb5" d="m375.264 153.513-9.424 16.217c-3.727 6.414-11.933 8.615-18.37 4.927l-14.447-8.324a81.722 81.722 0 0 1-33.439 19.183v16.409c-.008 7.447-6.043 13.482-13.49 13.49h-18.992c-7.447-.008-13.482-6.043-13.49-13.49v-16.409a81.418 81.418 0 0 1-33.439-19.183l-3.157 1.818c15.147-39.858-2.125-84.729-40.088-104.144a14.38 14.38 0 0 1 1.005-2.153l9.376-16.169c3.732-6.407 11.932-8.606 18.37-4.927l14.495 8.276a81.949 81.949 0 0 1 33.439-19.183V13.49C253.603 6.048 259.63.008 267.073 0h19.021c7.443-.008 13.482 6.019 13.49 13.462v16.39a82.282 82.282 0 0 1 33.439 19.183l14.447-8.276c6.437-3.687 14.643-1.486 18.37 4.927l9.424 16.169c3.742 6.412 1.577 14.644-4.836 18.385a9.892 9.892 0 0 1-.139.08l-14.304 8.228a77.932 77.932 0 0 1 0 38.318l14.304 8.18c6.459 3.672 8.718 11.884 5.046 18.343l-.071.124z" opacity="1" data-original="#318fb5" class=""></path><ellipse cx="276.588" cy="107.693" fill="#ffffff" rx="38.701" ry="38.395" opacity="1" data-original="#ffffff" class=""></ellipse></g></svg>