<svg xmlns="http://www.w3.org/2000/svg" version="1.1" xmlns:xlink="http://www.w3.org/1999/xlink" width="512" height="512" x="0" y="0" viewBox="0 0 682.667 682.667" style="enable-background:new 0 0 512 512" xml:space="preserve" class=""><g><defs><clipPath id="a" clipPathUnits="userSpaceOnUse"><path d="M0 512h512V0H0Z" fill="#000000" opacity="1" data-original="#000000"></path></clipPath></defs><path d="M228.822 79.506h80.164V270.81h-80.164zm0 355.828L17.883 504.5h291.103V351.786h-80.164z" style="fill-opacity:1;fill-rule:nonzero;stroke:none" transform="matrix(1.33333 0 0 -1.33333 0 682.667)" fill="#ffb655" data-original="#ffb655" class=""></path><path d="m0 0-210.939 69.165v424.994L0 424.993Z" style="fill-opacity:1;fill-rule:nonzero;stroke:none" transform="matrix(1.33333 0 0 -1.33333 305.096 668.878)" fill="#ffb655" data-original="#ffb655" class=""></path><path d="M0 0v-91.007l45.17-14.81v91.006z" style="fill-opacity:1;fill-rule:nonzero;stroke:none" transform="matrix(1.33333 0 0 -1.33333 238.764 323.676)" fill="#ff7956" data-original="#ff7956"></path><g clip-path="url(#a)" transform="matrix(1.33333 0 0 -1.33333 0 682.667)"><path d="m0 0-46.356 15.2a13.007 13.007 0 0 0-8.956 12.36c0 8.851 8.65 15.117 17.06 12.359l46.356-15.2A13.006 13.006 0 0 0 17.06 12.36C17.06 3.509 8.41-2.757 0 0" style="fill-opacity:1;fill-rule:nonzero;stroke:none" transform="translate(157.968 205.032)" fill="#ffffff" data-original="#ffffff"></path><path d="M0 0v-33.917l16.999-5.574a13.008 13.008 0 0 0 8.955-12.36c0-8.851-8.649-15.117-17.059-12.359L0-61.294v-29.713l45.17-14.81v91.006z" style="fill-opacity:1;fill-rule:nonzero;stroke:none" transform="translate(149.073 269.243)" fill="#ffffff" data-original="#ffffff"></path><path d="M0 0h-148.172v-80.976H0v-55.086l117.123 95.574L0 55.085Z" style="fill-opacity:1;fill-rule:nonzero;stroke:none" transform="translate(376.994 351.786)" fill="#ff7956" data-original="#ff7956"></path><path d="M228.822 104.645h55.025V270.81h-55.025zm0 330.689L94.55 479.361h189.298V351.786h-55.026z" style="fill-opacity:1;fill-rule:nonzero;stroke:none" fill="#57a4ff" data-original="#57a4ff"></path><path d="M0 0v415.157l-30 9.837V0l210.939-69.165v9.836z" style="fill-opacity:1;fill-rule:nonzero;stroke:none" transform="translate(47.883 79.506)" fill="#ff7956" data-original="#ff7956"></path><path d="M0 0a13.005 13.005 0 0 0-8.955 12.359c0 2.778.851 5.3 2.28 7.37l-15.221 4.99c-8.41 2.758-17.059-3.508-17.059-12.36A13.005 13.005 0 0 1-30 0l46.356-15.2c5.772-1.892 11.656.465 14.78 4.991z" style="fill-opacity:1;fill-rule:nonzero;stroke:none" transform="translate(141.611 220.232)" fill="#bddbff" data-original="#bddbff"></path><path d="M0 0v29.713l8.895-2.917a12.916 12.916 0 0 1 6.275-.465v25.785L0 57.09v24.08l-30 9.837V57.09l16.999-5.574a13.008 13.008 0 0 0 8.955-12.36c0-8.851-8.649-15.117-17.059-12.36L-30 29.713V0l45.17-14.811v9.837z" style="fill-opacity:1;fill-rule:nonzero;stroke:none" transform="translate(179.073 178.236)" fill="#bddbff" data-original="#bddbff"></path><path d="M228.822 270.81h30v80.976h-30z" style="fill-opacity:1;fill-rule:nonzero;stroke:none" fill="#ff3f62" data-original="#ff3f62"></path><path d="M0 0h30v83.548l-134.272 44.027h-30L0 83.548Z" style="fill-opacity:1;fill-rule:nonzero;stroke:none" transform="translate(228.822 351.786)" fill="#006df0" data-original="#006df0"></path><path d="M228.822 104.645h30V270.81h-30z" style="fill-opacity:1;fill-rule:nonzero;stroke:none" fill="#006df0" data-original="#006df0"></path><path d="M0 0h60.164v171.304" style="stroke-width:15;stroke-linecap:butt;stroke-linejoin:miter;stroke-miterlimit:10;stroke-dasharray:none;stroke-opacity:1" transform="translate(248.822 79.506)" fill="none" stroke="#000000" stroke-width="15" stroke-linecap="butt" stroke-linejoin="miter" stroke-miterlimit="10" stroke-dasharray="none" stroke-opacity="" data-original="#000000" class=""></path><path d="m0 0 210.939-69.166v-424.993L0-424.994V0h291.104v-132.714" style="stroke-width:15;stroke-linecap:butt;stroke-linejoin:miter;stroke-miterlimit:10;stroke-dasharray:none;stroke-opacity:1" transform="translate(17.883 504.5)" fill="none" stroke="#000000" stroke-width="15" stroke-linecap="butt" stroke-linejoin="miter" stroke-miterlimit="10" stroke-dasharray="none" stroke-opacity="" data-original="#000000" class=""></path><path d="M0 0v-95.046" style="stroke-width:15;stroke-linecap:butt;stroke-linejoin:miter;stroke-miterlimit:10;stroke-dasharray:15, 10, 15, 10, 650;stroke-dashoffset:0;stroke-opacity:1" transform="translate(258.709 216.334)" fill="none" stroke="#ffffff" stroke-width="15" stroke-linecap="butt" stroke-linejoin="miter" stroke-miterlimit="10" stroke-dasharray="15, 10, 15, 10, 650" stroke-dashoffset="0" stroke-opacity="" data-original="#ffffff"></path><path d="m0 0-46.356 15.2a13.007 13.007 0 0 0-8.956 12.36c0 8.851 8.65 15.117 17.06 12.359l46.356-15.2A13.006 13.006 0 0 0 17.06 12.36C17.06 3.509 8.41-2.757 0 0Z" style="stroke-width:15;stroke-linecap:butt;stroke-linejoin:miter;stroke-miterlimit:10;stroke-dasharray:none;stroke-opacity:1" transform="translate(157.968 205.032)" fill="none" stroke="#000000" stroke-width="15" stroke-linecap="butt" stroke-linejoin="miter" stroke-miterlimit="10" stroke-dasharray="none" stroke-opacity="" data-original="#000000" class=""></path><path d="M0 0v-29.713l45.17-14.81v91.006L0 61.294V27.377" style="stroke-width:15;stroke-linecap:butt;stroke-linejoin:miter;stroke-miterlimit:10;stroke-dasharray:none;stroke-opacity:1" transform="translate(149.073 207.949)" fill="none" stroke="#000000" stroke-width="15" stroke-linecap="butt" stroke-linejoin="miter" stroke-miterlimit="10" stroke-dasharray="none" stroke-opacity="" data-original="#000000" class=""></path><path d="M0 0v-130.926" style="stroke-width:15;stroke-linecap:butt;stroke-linejoin:miter;stroke-miterlimit:10;stroke-dasharray:15, 10, 15, 10, 650;stroke-dashoffset:0;stroke-opacity:1" transform="translate(203.685 417.122)" fill="none" stroke="#ffffff" stroke-width="15" stroke-linecap="butt" stroke-linejoin="miter" stroke-miterlimit="10" stroke-dasharray="15, 10, 15, 10, 650" stroke-dashoffset="0" stroke-opacity="" data-original="#ffffff"></path><path d="M0 0h128.172v-55.085l117.123 95.573-117.123 95.574V80.976H0" style="stroke-width:15;stroke-linecap:butt;stroke-linejoin:miter;stroke-miterlimit:10;stroke-dasharray:none;stroke-opacity:1" transform="translate(248.822 270.81)" fill="none" stroke="#000000" stroke-width="15" stroke-linecap="butt" stroke-linejoin="miter" stroke-miterlimit="10" stroke-dasharray="none" stroke-opacity="" data-original="#000000" class=""></path><path d="m0 0-52.224-42.615" style="stroke-width:15;stroke-linecap:butt;stroke-linejoin:miter;stroke-miterlimit:10;stroke-dasharray:15, 10, 15, 10, 650;stroke-dashoffset:0;stroke-opacity:1" transform="translate(454.356 311.298)" fill="none" stroke="#ffffff" stroke-width="15" stroke-linecap="butt" stroke-linejoin="miter" stroke-miterlimit="10" stroke-dasharray="15, 10, 15, 10, 650" stroke-dashoffset="0" stroke-opacity="" data-original="#ffffff"></path><path d="M0 0h125.104v-107.57M90.077-374.715h35.026v146.165" style="stroke-width:15;stroke-linecap:butt;stroke-linejoin:miter;stroke-miterlimit:10;stroke-dasharray:none;stroke-opacity:1" transform="translate(158.745 479.36)" fill="none" stroke="#000000" stroke-width="15" stroke-linecap="butt" stroke-linejoin="miter" stroke-miterlimit="10" stroke-dasharray="none" stroke-opacity="" data-original="#000000" class=""></path></g></g></svg>